<?xml version="1.0" standalone="no"?>
<!DOCTYPE svg PUBLIC "-//W3C//DTD SVG 20010904//EN"
 "http://www.w3.org/TR/2001/REC-SVG-20010904/DTD/svg10.dtd">
<svg version="1.0" xmlns="http://www.w3.org/2000/svg"
 width="234.000000pt" height="173.000000pt" viewBox="0 0 234.000000 173.000000"
 preserveAspectRatio="xMidYMid meet">
<metadata>
Created by potrace 1.10, written by Peter Selinger 2001-2011
</metadata>
<g transform="translate(0.000000,173.000000) scale(0.100000,-0.100000)"
fill="#000000" stroke="none">
<path d="M580 1379 c-19 -4 -43 -6 -52 -3 -10 3 -18 1 -18 -5 0 -5 -8 -10 -17
-10 -26 0 -115 -20 -134 -31 -9 -5 -34 -13 -55 -19 -54 -14 -77 -32 -68 -54 4
-11 17 -17 40 -17 19 0 34 3 34 8 0 4 10 8 23 9 55 4 75 9 70 17 -3 4 5 5 17
1 15 -5 20 -4 16 4 -4 6 0 12 11 12 39 3 62 6 75 11 9 4 14 -2 16 -18 1 -13
-2 -24 -6 -24 -12 0 -6 -351 7 -396 6 -23 18 -48 27 -55 14 -11 19 -10 34 9
15 19 17 26 7 45 -8 16 -12 79 -10 198 2 257 3 259 82 259 104 0 101 3 101
-116 0 -57 -3 -104 -6 -104 -3 0 -14 5 -25 10 -14 8 -26 7 -46 -4 -16 -8 -25
-15 -20 -16 4 0 1 -10 -7 -22 -21 -32 -26 -72 -15 -113 9 -33 12 -35 52 -35
24 0 48 -5 55 -12 8 -8 18 -9 35 -1 16 7 29 8 41 1 10 -5 27 -7 39 -4 12 3 26
-1 34 -12 8 -9 12 -12 9 -6 -3 6 5 17 18 24 14 7 26 20 29 30 2 9 13 16 23 15
40 -4 73 -18 71 -29 -3 -16 84 -9 102 9 12 12 16 11 31 -7 13 -16 23 -19 48
-13 18 3 30 10 27 14 -2 5 7 6 20 3 24 -4 33 -17 17 -24 -4 -1 -24 -37 -45
-79 -35 -70 -56 -159 -37 -159 4 0 10 -9 13 -21 3 -11 15 -23 26 -26 11 -3 18
-9 15 -14 -12 -20 45 -7 60 13 9 13 14 17 11 10 -3 -6 -4 -12 -2 -12 3 0 17
24 32 52 31 59 42 144 27 218 -7 40 -5 49 16 78 24 32 24 33 6 47 -10 8 -29
13 -40 10 -18 -4 -22 1 -28 36 -3 22 -13 42 -21 45 -8 4 -13 10 -10 15 8 12
-34 2 -61 -16 -13 -8 -24 -22 -24 -30 0 -8 -5 -15 -12 -15 -6 0 -9 3 -5 6 3 3
-5 18 -18 32 -21 23 -27 24 -50 14 -14 -7 -23 -17 -20 -22 3 -6 1 -10 -5 -10
-6 0 -8 -4 -5 -10 3 -5 2 -10 -4 -10 -6 0 -7 -8 -4 -17 6 -16 5 -16 -10 -4
-15 12 -17 12 -11 -4 5 -13 4 -16 -4 -11 -7 4 -10 17 -6 32 3 13 1 30 -5 37
-7 9 -8 24 -2 45 8 25 6 34 -10 48 -16 14 -24 16 -37 7 -18 -11 -26 -73 -10
-73 5 0 6 -5 3 -10 -5 -8 -11 -7 -20 0 -9 7 -27 9 -45 5 -35 -8 -32 -16 -34
117 -1 78 -5 102 -19 115 -13 13 -19 14 -29 5 -17 -17 -31 -15 -54 6 -10 9
-28 19 -39 20 -46 8 -183 9 -215 1z m241 -40 c20 -10 39 -25 43 -34 9 -25 7
-55 -4 -55 -5 0 -10 11 -10 24 0 14 -5 28 -12 32 -8 5 -10 -30 -5 -142 6 -151
15 -205 33 -211 24 -8 31 46 26 210 -3 121 -2 167 7 167 7 0 11 -34 11 -107 0
-60 3 -124 6 -144 l6 -35 28 28 c16 15 36 28 44 28 19 0 19 2 1 -50 -8 -24
-13 -45 -11 -47 2 -2 19 -1 38 2 35 7 35 7 28 46 -6 30 -4 39 6 39 9 0 14 -13
15 -37 2 -84 28 -118 48 -62 6 18 14 29 18 25 4 -4 12 10 18 31 8 28 16 38 30
38 16 0 22 -10 29 -50 13 -80 15 -83 32 -60 8 11 17 31 20 45 9 44 29 75 49
75 12 0 21 -8 23 -20 3 -22 24 -98 29 -104 1 -2 11 7 22 20 28 34 37 16 11
-21 -20 -29 -21 -34 -10 -98 15 -84 1 -167 -35 -206 -27 -29 -66 -34 -89 -10
-29 28 -19 79 37 187 51 97 53 105 41 137 l-12 35 -11 -29 c-9 -22 -16 -27
-33 -22 -13 3 -29 -1 -40 -11 -14 -13 -20 -13 -33 -3 -8 7 -15 23 -15 35 0 40
-12 85 -21 79 -5 -3 -9 -24 -9 -47 0 -47 -12 -73 -28 -63 -6 4 -21 1 -32 -6
-18 -11 -23 -10 -35 6 -8 10 -16 22 -17 27 -2 4 -24 5 -50 2 -40 -5 -48 -10
-59 -34 -14 -34 -27 -37 -37 -8 -7 19 -9 19 -21 5 -18 -22 -38 -20 -51 4 -11
21 -11 21 -29 -1 -25 -31 -51 -19 -51 22 l0 31 -30 -32 c-16 -17 -34 -29 -40
-25 -15 9 -12 70 4 110 19 45 47 46 78 3 l23 -33 -32 23 c-17 12 -33 22 -36
22 -10 0 -28 -60 -25 -82 4 -22 5 -22 24 9 25 44 40 41 48 -7 3 -22 10 -40 15
-40 22 0 28 55 23 213 -5 195 7 180 -137 175 l-90 -3 -8 -75 c-9 -85 -3 -383
8 -417 4 -14 3 -23 -3 -23 -24 0 -35 109 -30 309 4 153 2 201 -7 201 -7 0 -76
-16 -155 -35 -148 -37 -199 -41 -88 -7 257 79 431 96 519 51z m49 -151 c0 -18
-2 -20 -9 -8 -6 8 -7 18 -5 22 9 14 14 9 14 -14z m200 -38 c0 -22 -4 -28 -15
-24 -15 6 -20 35 -8 47 14 15 23 6 23 -23z m-208 -62 c-6 -6 -7 0 -4 19 5 21
7 23 10 9 2 -10 0 -22 -6 -28z m-75 -20 c-3 -8 -6 -5 -6 6 -1 11 2 17 5 13 3
-3 4 -12 1 -19z"/>
<path d="M1301 1062 c-7 -13 -11 -37 -9 -55 l4 -32 12 43 c15 51 11 77 -7 44z"/>
<path d="M951 1044 c-19 -24 -20 -44 -3 -44 8 0 34 62 28 67 -2 2 -13 -8 -25
-23z"/>
<path d="M920 975 c0 -15 4 -24 10 -20 6 3 10 12 10 20 0 8 -4 17 -10 20 -6 4
-10 -5 -10 -20z"/>
<path d="M1328 850 c-66 -119 -74 -190 -23 -190 50 0 82 93 67 200 l-8 55 -36
-65z m19 -42 c-3 -7 -5 -2 -5 12 0 14 2 19 5 13 2 -7 2 -19 0 -25z m3 -47 c0
-22 -23 -63 -35 -65 -5 0 -10 11 -10 26 -1 15 2 25 6 22 11 -6 21 34 13 48 -6
9 -3 9 9 -1 9 -7 17 -21 17 -30z"/>
<path d="M1654 1349 c-57 -7 -134 -38 -134 -53 0 -5 -3 -6 -6 -3 -10 10 -64
-32 -64 -49 0 -8 -4 -12 -10 -9 -5 3 -10 1 -10 -5 0 -6 -15 -25 -34 -42 -19
-17 -32 -37 -29 -45 3 -7 10 -10 16 -6 6 4 8 0 4 -10 -5 -14 -2 -15 21 -6 15
5 33 17 40 26 10 15 12 13 12 -11 0 -15 -5 -36 -10 -47 -8 -13 -7 -25 1 -40 8
-15 8 -19 0 -15 -6 4 -11 2 -11 -3 0 -6 5 -11 10 -11 6 0 10 -35 10 -84 0 -67
4 -88 19 -107 16 -20 21 -21 35 -10 12 10 16 32 16 91 l0 77 63 7 c34 4 67 8
74 9 7 0 10 4 7 8 -2 4 6 11 18 15 12 4 35 20 50 36 16 17 28 25 28 20 0 -6
-4 -13 -8 -16 -10 -6 -9 -36 2 -54 4 -6 5 -12 1 -12 -3 0 1 -13 10 -30 9 -16
22 -30 31 -30 8 0 12 -4 9 -10 -3 -6 5 -10 19 -10 14 0 28 5 32 11 3 6 16 8
29 5 14 -4 28 0 35 9 11 13 15 12 34 -10 27 -31 29 -31 60 0 47 46 45 111 -2
86 -22 -12 -33 -6 -26 14 3 7 -2 27 -11 44 -23 46 -68 40 -88 -13 -7 -17 -10
-15 -26 15 -20 36 -52 49 -77 29 -16 -14 -20 0 -4 16 26 26 36 124 17 161 -30
56 -71 73 -153 62z m109 -39 c74 -59 18 -219 -95 -273 -40 -19 -112 -25 -147
-13 l-24 8 6 -101 c4 -56 3 -101 -2 -101 -11 0 -21 75 -21 156 0 34 -4 66 -10
69 -16 10 -12 25 5 19 12 -5 15 3 15 37 0 24 3 62 6 84 l5 40 -50 -53 c-33
-34 -51 -47 -51 -37 0 28 109 125 174 156 76 36 150 39 189 9z m87 -229 c15
-29 13 -39 -16 -68 -20 -20 -23 -28 -12 -34 7 -5 16 -9 20 -9 15 0 66 58 75
86 6 19 17 29 29 29 19 0 23 -10 40 -103 4 -20 7 -22 19 -12 8 7 15 19 15 26
0 8 7 14 15 14 21 0 19 -10 -8 -44 -30 -38 -54 -30 -62 21 -16 101 -23 105
-34 22 -3 -29 -12 -54 -18 -57 -7 -2 -13 3 -13 12 0 20 -14 21 -30 1 -29 -35
-75 -8 -86 50 -11 61 41 112 66 66z"/>
<path d="M1625 1303 c-11 -3 -39 -16 -62 -30 l-41 -24 -7 -77 c-3 -42 -8 -87
-10 -98 -6 -27 10 -34 74 -34 102 0 193 87 195 186 1 37 -4 50 -23 65 -23 18
-78 24 -126 12z m75 -25 c0 -9 3 -9 9 1 8 12 12 12 25 2 21 -18 21 -79 0 -121
-17 -33 -54 -76 -54 -63 0 4 -6 -1 -13 -12 -8 -10 -19 -15 -25 -11 -7 4 -12 2
-12 -3 0 -6 -20 -11 -44 -11 -53 0 -59 15 -49 109 5 53 10 65 34 82 16 11 29
18 29 14 0 -3 6 -3 13 2 6 4 23 6 37 5 23 -1 23 -1 5 7 -17 8 -15 10 13 10 19
1 32 -4 32 -11z"/>
<path d="M1806 1054 c-9 -33 0 -42 20 -23 8 9 12 23 8 32 -9 25 -21 21 -28 -9z"/>
<path d="M940 463 c-18 -21 -30 -33 -26 -26 4 7 -3 17 -16 24 -13 7 -26 17
-30 22 -4 7 -11 7 -20 -1 -9 -7 -19 -8 -28 -2 -23 15 -117 12 -132 -4 -11 -11
-16 -11 -33 0 -14 9 -56 12 -139 11 -103 -2 -120 -4 -130 -20 -9 -15 -7 -22
12 -37 18 -15 22 -28 22 -74 0 -46 4 -58 23 -71 20 -14 23 -14 38 4 10 12 17
40 17 67 1 54 17 81 19 31 2 -64 4 -72 21 -94 12 -16 23 -21 39 -17 13 4 21
10 18 14 -3 5 -1 11 5 15 6 4 8 10 5 15 -3 4 7 11 22 15 16 4 29 2 31 -4 2 -5
12 -22 24 -36 19 -24 24 -25 109 -23 83 2 91 4 106 28 10 14 16 30 15 35 -2 6
12 -8 31 -29 30 -35 35 -38 56 -27 19 10 22 19 19 46 -3 27 -1 32 9 23 7 -5
10 -15 7 -20 -3 -5 2 -16 12 -24 11 -9 13 -13 7 -9 -21 10 -15 -3 6 -14 13 -8
23 -6 37 5 11 9 13 13 7 9 -9 -4 -11 -1 -6 10 5 14 9 13 30 -10 31 -32 42 -29
70 21 14 24 23 32 23 21 0 -10 5 -15 10 -12 6 3 10 2 10 -3 0 -4 9 -18 20 -30
15 -16 32 -22 63 -21 41 0 99 17 67 18 -13 1 -13 2 0 11 21 14 30 12 30 -4 0
-8 8 -17 19 -21 20 -6 53 3 47 14 -3 4 -1 13 3 20 6 9 13 5 25 -13 17 -26 50
-35 61 -16 5 8 11 8 20 0 7 -6 56 -9 126 -7 104 2 116 4 142 27 28 25 54 92
37 98 -5 2 -7 9 -4 15 2 7 -6 24 -19 39 -17 20 -37 29 -74 34 -75 10 -93 -4
-93 -70 0 -47 -3 -54 -22 -60 -37 -10 -38 -8 -38 52 0 76 -27 104 -64 66 -15
-14 -17 -14 -32 0 -24 25 -119 22 -137 -4 -14 -20 -14 -20 -35 3 -26 28 -91
29 -118 3 -14 -14 -18 -15 -28 -3 -14 18 -46 29 -46 17 0 -5 -9 -14 -20 -20
-16 -9 -24 -7 -36 5 -15 14 -18 14 -33 1 -15 -14 -19 -14 -40 0 -12 9 -30 14
-40 11 -10 -2 -25 0 -34 4 -11 7 -24 0 -47 -28z m-420 -14 c0 -12 -6 -16 -20
-12 -19 5 -20 0 -20 -66 0 -62 -2 -71 -18 -71 -17 0 -19 8 -18 68 1 62 -1 67
-21 70 -13 2 -23 10 -23 18 0 11 13 14 60 12 49 -2 60 -5 60 -19z m135 1 c8
-7 15 -27 15 -46 0 -38 -21 -54 -68 -54 -26 0 -29 -3 -24 -25 3 -20 0 -25 -17
-25 -20 0 -21 5 -20 78 1 42 3 80 6 84 7 12 90 3 108 -12z m162 3 c3 -9 -9
-13 -41 -13 -39 0 -46 -3 -46 -20 0 -17 7 -20 40 -20 29 0 40 -4 40 -15 0 -11
-11 -15 -39 -15 -30 0 -40 -4 -44 -20 -5 -18 0 -20 44 -20 38 0 49 -4 49 -15
0 -13 -11 -15 -61 -13 l-62 3 1 75 c0 41 1 78 1 81 2 13 114 4 118 -8z m143
-35 c0 40 4 52 15 52 12 0 15 -17 15 -89 l0 -88 -55 55 -55 55 0 -51 c0 -40
-4 -52 -15 -52 -12 0 -15 16 -15 87 l0 87 55 -54 55 -54 0 52z m101 2 l17 -45
16 39 c9 21 16 43 16 48 0 22 20 -6 31 -42 7 -22 15 -40 18 -40 4 0 13 19 21
43 9 24 21 42 30 42 18 0 18 2 -18 -99 l-29 -79 -18 52 c-11 28 -22 51 -26 51
-3 0 -15 -23 -26 -52 l-20 -52 -27 79 c-15 44 -30 86 -33 93 -4 9 1 13 13 10
11 -2 25 -21 35 -48z m327 14 c12 -14 22 -34 22 -45 0 -28 -26 -75 -45 -83
-83 -32 -158 52 -109 122 33 48 92 50 132 6z m169 10 c18 -25 16 -51 -6 -73
-19 -19 -19 -20 0 -37 23 -21 24 -34 3 -34 -8 0 -27 14 -41 30 -13 17 -29 30
-34 30 -5 0 -9 -13 -9 -30 0 -19 -5 -30 -14 -30 -11 0 -15 19 -18 81 -2 44 -1
83 2 85 12 12 105 -6 117 -22z m73 -44 l0 -70 43 0 c32 0 44 -4 44 -15 0 -12
-13 -15 -59 -15 l-58 0 0 85 c0 69 3 85 15 85 12 0 15 -14 15 -70z m188 62
c55 -4 82 -85 44 -132 -14 -18 -32 -24 -74 -28 l-55 -4 -2 76 c-1 42 0 80 3
85 3 4 18 7 33 6 15 -1 38 -3 51 -3z"/>
<path d="M578 411 c-4 -29 -3 -31 29 -31 32 0 34 2 31 28 -2 21 -9 28 -29 30
-23 3 -27 -1 -31 -27z"/>
<path d="M1287 422 c-21 -23 -22 -56 -1 -76 39 -40 105 4 85 56 -15 40 -57 50
-84 20z m38 -12 c-3 -5 1 -10 11 -10 13 0 14 -3 5 -14 -9 -11 -9 -15 1 -19 7
-3 1 -6 -14 -6 -18 -1 -28 4 -28 13 0 22 11 46 22 46 5 0 6 -4 3 -10z"/>
<path d="M1470 410 c0 -25 4 -30 24 -30 13 0 29 7 36 15 17 20 -3 45 -36 45
-20 0 -24 -5 -24 -30z"/>
<path d="M1768 386 c-3 -55 -2 -56 24 -56 32 0 58 24 58 53 0 32 -12 46 -47
53 l-31 6 -4 -56z m50 22 c11 -14 -1 -58 -16 -58 -5 0 -9 16 -10 35 -1 36 8
44 26 23z"/>
</g>
</svg>
